<?xml version="1.0" ?><!DOCTYPE svg  PUBLIC '-//W3C//DTD SVG 1.1//EN'  'http://www.w3.org/Graphics/SVG/1.1/DTD/svg11.dtd'><svg enable-background="new 0 75.9 595.3 690" version="1.1" viewBox="0 75.9 595.3 690" xml:space="preserve" xmlns="http://www.w3.org/2000/svg" xmlns:xlink="http://www.w3.org/1999/xlink"><g id="Responsive_Solid"><g><rect height="118.1" width="67.5" x="173.9" y="394"/><polygon points="258.2,495.3 258.2,529 292,529 292,495.3 265.8,495.3   "/><path d="M207.6,520.6c-4.7,0-8.4,3.8-8.4,8.4c0,4.7,3.8,8.4,8.4,8.4c4.7,0,8.4-3.8,8.4-8.4C216.1,524.4,212.3,520.6,207.6,520.6z"/><path d="M402.7,309.7H198.1c-4.1,0-7.4,3.3-7.4,7.4v60.1h50.7c9.3,0,16.9,7.6,16.9,16.9v54.8h151.9V317.1    C410.1,313,406.8,309.7,402.7,309.7z"/><path d="M297.6,76.6L0,248.8v344.4l297.6,172.2l297.6-172.2V248.8L297.6,76.6z M427,471c0,13.4-10.9,24.3-24.3,24.3H385h-76.1V529    h42.2v16.9h-45.4h-16.9h-47.1v0c-0.1,0-0.3,0-0.4,0h-67.5c-9.3,0-16.9-7.6-16.9-16.9V394c0-9.3,7.5-16.8,16.8-16.9v-60.1    c0-13.4,10.9-24.3,24.3-24.3h204.6c13.4,0,24.3,10.9,24.3,24.3V471z"/></g></g></svg>